<svg width="24" height="24" viewBox="0 0 24 24" fill="none" xmlns="http://www.w3.org/2000/svg">
<path d="M16.8548 2.00053C18.4186 1.95342 17.9586 5.0612 17.7616 5.9663C17.9315 6.21433 18.1885 6.50303 18.3829 6.73709C18.5641 6.95531 18.8455 7.17432 18.9588 7.43476C18.9423 7.69332 18.6167 7.73341 18.411 7.77144C18.9623 8.70537 19.2095 8.96288 17.8658 8.85023C17.6401 9.75605 16.1365 10.5789 15.3472 10.9575C15.6949 11.1078 16.1522 11.2167 16.5241 11.289C16.7606 10.7317 16.8442 10.7992 17.4131 10.8916L17.6256 10.5849C17.547 10.3479 17.5196 10.252 17.4762 10.006C17.4923 9.98006 17.5099 9.95486 17.5283 9.93053C17.648 9.77193 18.2324 9.33389 18.4502 9.31813C18.6611 9.3029 18.8684 9.50214 19.0141 9.63217C19.1566 9.58867 19.2608 9.56 19.4075 9.52739C19.5643 8.93006 19.5864 8.86691 20.2313 8.90728C20.8557 8.94642 20.9909 8.89371 21.0842 9.56463L21.4696 9.71965C21.9048 9.42862 21.969 9.26677 22.4353 9.66023C22.989 10.1276 23.1147 10.0884 22.8225 10.7779C22.8943 10.9035 22.9727 11.0122 23.0553 11.1306C23.2822 11.1352 23.4406 11.1146 23.6363 11.2488C23.8643 11.4056 23.9579 12.0568 24 12.3374C23.8183 12.6007 23.7504 12.6086 23.465 12.7711C23.445 12.9076 23.4437 13.031 23.439 13.1685C24.0642 13.5799 23.9771 13.6556 23.706 14.3466C23.4958 14.8828 23.3517 14.83 22.8335 14.7387C22.7386 14.8899 22.7052 14.931 22.585 15.062C22.6202 15.1585 22.6542 15.2553 22.6868 15.3526C22.7152 15.4383 22.7578 15.6164 22.692 15.6924C22.5064 15.9073 22.0314 16.2305 21.762 16.2955C21.5916 16.3365 21.3299 16.0811 21.2118 15.9785C21.0448 16.0148 20.958 16.0475 20.7984 16.1058C20.7763 16.1937 20.7521 16.2813 20.7263 16.3683C20.6687 16.5561 20.5929 16.6863 20.3696 16.6974C20.0922 16.7108 19.624 16.7294 19.3602 16.6371C19.2426 16.5958 19.1611 16.2032 19.133 16.0767C18.9615 16.002 18.8902 15.9772 18.7092 15.9291C18.508 16.0922 18.4318 16.1516 18.188 16.2329C17.9891 16.1608 17.3145 15.7513 17.2314 15.5106C17.1993 15.4178 17.4094 14.9512 17.3442 14.796C17.2866 14.8026 16.9773 15.109 16.8558 15.1921C16.4868 15.4449 16.1409 15.5696 15.7306 15.7329L15.798 16.1237C16.6241 16.4756 16.8908 16.7734 17.3632 17.5151C17.8858 16.9856 18.801 16.6166 19.3915 17.3223C19.6921 17.6816 19.4799 18.2094 19.2973 18.5855C19.0117 19.1736 18.815 19.8717 18.5023 20.4461C18.4202 20.5994 18.3142 20.7385 18.1885 20.8587C18.0478 20.9945 17.8668 21.1144 17.6732 21.1475C17.148 21.2375 16.4602 21.1654 15.9208 21.1349C15.3629 21.1007 14.8046 21.076 14.2457 21.0605C14.1839 21.1296 14.1192 21.1962 14.0516 21.2596C13.6121 21.672 13.0129 21.5405 12.4535 21.5449C11.6605 21.5515 10.862 21.5018 10.0696 21.4742C8.97911 21.3913 8.41914 21.3243 7.46932 20.7512C5.71669 21.0715 4.22301 21.0965 2.61945 20.1405C1.39445 19.4161 0.513963 18.2276 0.177702 16.8449C-0.363288 14.6848 0.283169 11.4618 2.77789 10.7561C3.23356 10.6271 3.83515 10.7011 4.23338 10.9769C6.34815 12.4416 3.57087 15.8018 5.8095 17.2244C5.82476 14.5859 7.36172 13.284 7.99574 10.9756C7.22627 10.6235 5.95597 9.95162 5.70543 9.08092C4.43574 9.18915 4.68783 8.94531 5.16823 8.02645C4.95092 7.97309 4.74178 7.95431 4.62374 7.76397C4.60375 7.55848 4.97738 7.18232 5.11539 7.01896C5.32824 6.77018 5.52719 6.50985 5.71132 6.23915C5.64475 6.02188 5.57605 5.8009 5.5361 5.57713C4.82957 1.62032 6.54312 1.59423 9.32003 3.51403C10.8686 2.86216 12.4685 2.83638 14.0426 3.39178C14.8472 2.72584 15.779 2.07607 16.8548 2.00053Z" fill="#06483C"/>
<path d="M8.66818 11.1901C9.89229 11.5915 10.4304 11.5804 11.6665 11.7209C12.3926 12.5544 14.0562 12.9762 15.1251 13.0738C15.335 13.093 16.3999 13.113 16.4688 13.2479C16.3236 13.3 16.1329 13.3108 16.1077 13.5112C16.2836 13.7229 16.5893 13.4268 16.8044 13.5525C16.8717 13.6332 16.8686 13.6535 16.8904 13.7608C16.837 13.9423 16.038 13.9728 16.3276 14.2658C16.4567 14.2871 16.6966 14.27 16.8378 14.2647C16.0067 15.3849 13.5591 15.4336 12.3137 15.1703C11.8735 15.0772 11.4303 14.9181 10.9966 14.7987C10.877 14.7658 10.7924 14.7929 10.6937 14.8612C10.5677 15.164 11.3114 15.5051 11.5263 15.635L11.4153 16.1234C10.6587 15.8486 9.50984 15.7387 8.93947 16.4333C8.96396 16.5422 8.99158 16.6645 9.13697 16.6597C9.36532 16.6468 9.59803 16.59 9.82598 16.5611C10.7223 16.4472 11.5602 16.8499 12.1136 17.5492C12.3387 17.8341 12.4784 18.1087 12.6525 18.4335C12.2514 19.2065 12.016 20.0016 12.2664 20.8521C11.3569 20.8521 10.3897 20.8198 9.49553 20.7262C7.68059 20.5357 6.52018 19.1707 6.49962 17.3664C6.47957 15.6106 7.32784 14.2663 8.07866 12.7577C8.32171 12.2695 8.50653 11.7046 8.66818 11.1901Z" fill="#D2E3E4"/>
<path d="M11.8367 3.63226C15.2614 3.66559 16.2953 6.00011 17.2166 8.82899C17.1006 8.97549 16.973 9.11333 16.8484 9.25244C16.679 8.88025 16.5425 8.66708 16.2421 8.37853C15.9965 8.14226 15.2637 7.70274 14.9697 8.03498C14.981 8.28997 15.436 8.27011 15.6556 8.38126C15.9144 8.51214 16.5622 9.22672 16.4412 9.52108C16.3436 9.75832 15.6422 10.0912 15.3818 10.217C15.6085 9.49522 15.4407 8.81581 14.8111 8.33205C14.7645 8.29628 14.7085 8.33255 14.6627 8.3517C14.552 8.54591 14.7929 8.7589 14.9087 8.96825C14.9681 9.07717 15.0128 9.19365 15.0412 9.31451C15.1433 9.74782 15.0246 10.0778 14.8069 10.4372C14.4405 10.6307 13.9331 10.7662 13.5305 10.856C13.547 10.8401 13.5633 10.8241 13.5794 10.808C14.3306 10.0615 14.4352 9.30891 13.6259 8.52447C13.0926 8.00742 12.4655 7.58376 11.6944 7.59344C11.0226 7.69838 10.5322 8.01902 10.0714 8.50548C9.21602 9.40877 9.32409 10.1428 10.2031 10.9245C9.7942 10.8584 9.22785 10.7597 8.85724 10.5926C8.03325 9.51064 9.05442 8.82131 8.84049 8.48313C8.61319 8.39704 8.43997 8.79574 8.34071 8.97165C8.0463 9.49338 8.09382 9.84808 8.26439 10.4003C7.82366 10.2033 7.50828 10.0563 7.12681 9.76558C7.28117 8.87331 7.72427 8.57374 8.52427 8.31596C8.57116 8.24387 8.55367 8.28384 8.54218 8.17322C8.41167 7.99324 8.09748 8.07317 7.92184 8.147C7.34074 8.39115 6.98191 8.861 6.73692 9.42679C6.57017 9.28077 6.50389 9.21138 6.37109 9.03795C6.89428 7.66066 7.22967 6.15844 8.27267 5.05753C9.2601 4.01524 10.447 3.67945 11.8367 3.63226Z" fill="#D2E3E4"/>
<path d="M13.7687 6.9788C14.1809 6.89677 14.5812 7.16517 14.6619 7.57763C14.7427 7.99006 14.4728 8.38963 14.0602 8.46898C13.6493 8.54801 13.2522 8.27979 13.1717 7.86923C13.0915 7.45867 13.3584 7.06049 13.7687 6.9788Z" fill="#06483C"/>
<path d="M13.6621 7.34175C13.7381 7.30091 13.8301 7.30422 13.9032 7.35043C13.9761 7.39667 14.0184 7.47863 14.014 7.56489C14.0095 7.65114 13.959 7.72828 13.8817 7.76676C13.7646 7.82493 13.6226 7.77849 13.5626 7.66239C13.5027 7.54633 13.5469 7.40359 13.6621 7.34175Z" fill="#D2E3E4"/>
<path d="M9.43872 7.10835C9.70588 7.05402 9.98163 7.14746 10.1607 7.35298C10.3398 7.55852 10.3947 7.84447 10.3043 8.10167C10.214 8.3589 9.99238 8.54771 9.72408 8.59611C9.3156 8.66975 8.92392 8.40095 8.84573 7.99334C8.76754 7.58569 9.03197 7.19104 9.43872 7.10835Z" fill="#06483C"/>
<path d="M9.5749 7.47434C9.65002 7.43578 9.74012 7.44096 9.81032 7.48786C9.88052 7.53475 9.91981 7.616 9.91295 7.70013C9.90611 7.78427 9.85419 7.8581 9.77734 7.89303C9.66235 7.94526 9.52669 7.89621 9.47172 7.78251C9.41675 7.66881 9.46257 7.53202 9.5749 7.47434Z" fill="#D2E3E4"/>
<path d="M9.71667 5.83667C10.7558 5.78167 11.2198 7.23631 10.216 7.01943C9.95859 6.93298 8.86917 6.61555 9.1502 6.15267C9.27081 5.95399 9.49482 5.87449 9.71667 5.83667Z" fill="#06483C"/>
<path d="M9.68805 6.12251C9.77388 6.11599 9.87608 6.10852 9.96048 6.12748C10.1866 6.17835 10.5047 6.4628 10.4372 6.71626C10.3628 6.76673 10.391 6.75216 10.2777 6.73954C10.0627 6.66232 9.47496 6.51835 9.48175 6.27346C9.53075 6.18963 9.5996 6.1682 9.68805 6.12251Z" fill="#D2E3E4"/>
<path d="M13.5485 5.73248C13.791 5.72646 14.0808 5.78253 14.2147 6.00207C14.4693 6.41987 13.5616 6.7754 13.295 6.90147C12.4036 7.28015 12.4144 5.90583 13.5485 5.73248Z" fill="#06483C"/>
<path d="M13.424 6.01881C13.46 6.01583 13.4963 6.0136 13.5326 6.01207C13.6843 6.00647 13.9055 5.99561 13.9024 6.19169C13.7853 6.38508 13.6525 6.41354 13.4395 6.5133C13.2938 6.57936 13.1126 6.70424 13.0008 6.5453C12.9753 6.30328 13.2335 6.1121 13.424 6.01881Z" fill="#D2E3E4"/>
<path d="M19.9933 9.48348C20.1727 9.4825 20.325 9.49092 20.5041 9.50225C20.5557 9.68102 20.6048 9.84909 20.664 10.0255C20.8644 10.1183 21.2605 10.2533 21.4875 10.3413C21.7024 10.2584 21.795 10.1778 21.9654 10.0335C22.114 10.1283 22.2487 10.2349 22.3886 10.3419C22.3121 10.5359 22.2663 10.6758 22.2074 10.8765C22.3836 11.137 22.529 11.3885 22.6874 11.6597C22.9267 11.6839 23.0472 11.6873 23.2886 11.6799C23.3378 11.8398 23.3723 11.9887 23.4107 12.1512C23.235 12.2612 23.0695 12.3572 22.9146 12.4968C22.9162 12.8038 22.9194 13.0584 22.8641 13.36C23.0301 13.551 23.1321 13.6223 23.3328 13.7803L23.1287 14.2214L22.5277 14.2111C22.3405 14.4489 22.1548 14.688 21.9709 14.9281C22.0083 15.077 22.0809 15.2848 22.1287 15.4355C21.9846 15.5491 21.8923 15.6098 21.7366 15.7072C21.5638 15.5691 21.4417 15.4654 21.2495 15.3579C20.9739 15.4536 20.704 15.5457 20.4181 15.6062L20.3326 15.7803L20.2135 16.1393L19.7096 16.1335C19.5218 15.4115 19.3203 15.5267 18.6607 15.2895C18.5065 15.3731 18.3656 15.4902 18.2262 15.5977C18.0465 15.4923 17.985 15.4526 17.8288 15.3174C17.8971 15.1267 17.9513 14.9691 18.0055 14.7743C17.8519 14.5333 17.7183 14.391 17.5644 14.118C17.5813 13.6054 17.4832 13.414 17.2291 12.9863C17.2354 12.7688 17.2746 12.4721 17.2912 12.2409C17.151 12.085 17.0505 12.0047 16.8877 11.8701C16.9279 11.7309 16.9974 11.5508 17.0476 11.4106C17.8274 11.5045 17.7914 11.3162 18.2338 10.7193C18.2025 10.5357 18.1365 10.3754 18.0723 10.2007C18.2101 10.0892 18.3285 10.0078 18.4752 9.90785C18.6399 10.0589 18.719 10.1281 18.9055 10.2482C19.1259 10.2149 19.6062 10.0639 19.8234 9.99104C19.9084 9.80956 19.9402 9.67642 19.9933 9.48348Z" fill="#D2E3E4"/>
<path d="M19.8042 10.3823C19.9283 10.3748 20.1377 10.3662 20.1469 10.5352C20.0609 10.7153 19.7166 10.7951 19.5559 10.9391C19.0985 11.3488 19.0333 11.9319 19.4241 12.4087C19.5156 12.3154 19.6805 12.1986 19.7444 12.1144C19.9583 11.8343 20.0635 11.5087 20.3778 11.3078C20.7289 11.103 21.009 11.0794 21.429 11.1473C21.8091 11.2089 22.5558 11.7502 22.4824 12.218C22.4737 12.2728 22.3998 12.3101 22.3467 12.3325C22.191 12.3046 22.156 12.2025 22.0674 12.0773C21.6126 11.434 20.7726 11.3751 20.3281 12.07L20.3081 12.1021C20.503 12.1904 20.574 12.2407 20.7357 12.368C21.09 12.383 21.3657 12.45 21.6442 12.687C21.9196 12.924 22.0866 13.2627 22.1066 13.6254C22.126 13.9579 21.9695 14.6375 21.5458 14.6396C21.3664 14.5144 21.5895 14.2175 21.6295 14.0368C21.7262 13.6007 21.5834 13.183 21.1881 12.9526C21.1161 12.9106 20.9811 12.839 20.8943 12.8611L20.8746 12.9095C20.8452 13.0618 20.8033 13.1896 20.7578 13.3374C20.8394 13.5776 20.882 13.7864 20.8417 14.0412C20.7873 14.3753 20.6011 14.6735 20.3247 14.8692C20.0011 15.0978 19.1595 15.3006 18.8089 14.9084C18.7658 14.86 18.7787 14.8437 18.7902 14.7877C18.9759 14.6301 19.644 14.7769 19.9125 14.5815C20.1471 14.4108 20.5293 13.9455 20.3378 13.6565C20.2344 13.6288 20.0151 13.6404 19.8988 13.6417C19.8357 13.6883 19.7447 13.7543 19.6771 13.7938C19.371 13.971 19.0072 14.0202 18.665 13.9305C18.3147 13.8408 18.0172 13.6099 17.8434 13.293C17.6956 13.0276 17.5165 12.292 17.8647 12.1226C18.0643 12.2115 18.0317 12.6788 18.1277 12.8906C18.3623 13.4087 18.8618 13.6338 19.3965 13.3963L19.4317 13.3806C19.3497 13.1844 19.3189 13.1005 19.2671 12.8953C19.0259 12.6952 18.8744 12.5615 18.7658 12.2465C18.6422 11.8814 18.6714 11.4816 18.8468 11.1383C19.0575 10.7314 19.3868 10.5221 19.8042 10.3823Z" fill="#06483C"/>
<path d="M20.0269 12.5254C20.2044 12.497 20.3727 12.6138 20.4082 12.79C20.4438 12.9662 20.3335 13.139 20.1586 13.1814C20.0395 13.2101 19.914 13.1714 19.8317 13.0804C19.7494 12.9894 19.7236 12.8605 19.7644 12.7448C19.8052 12.6293 19.9059 12.5449 20.0269 12.5254Z" fill="#D2E3E4"/>
<path d="M11.6449 7.99153C12.6624 7.88617 14.4044 9.21878 13.522 10.2917C13.1409 10.7552 12.6667 10.9861 12.0809 11.0624C11.4471 11.074 11.122 11.0279 10.569 10.6927C9.05232 9.77341 10.4281 8.238 11.6449 7.99153Z" fill="#D2E3E4"/>
<path d="M11.732 8.65308C12.036 8.65381 12.5563 8.78976 12.5197 9.1856C12.4934 9.47349 12.0634 9.50921 12.0221 9.70831C12.0776 9.91369 12.243 9.94047 12.4282 9.9482C12.662 9.95798 12.9853 9.56489 13.1254 9.74076C13.2014 10.2001 12.7228 10.3421 12.3498 10.3304C12.1928 10.3255 12.0673 10.2689 11.9253 10.2093C11.8209 10.1429 11.3696 10.3922 11.0931 10.3704C10.7942 10.3467 10.2755 9.95296 10.6394 9.74555C10.731 9.75065 10.8178 9.85312 10.9005 9.91083C11.1052 10.0536 11.4264 10.0166 11.5689 9.79273C11.5963 9.50305 10.8609 9.35061 11.1862 8.9213C11.3393 8.71933 11.4969 8.69 11.732 8.65308Z" fill="#06483C"/>
<path d="M2.80807 13.3892C3.34002 13.3398 3.84645 13.4503 4.33049 13.6644C4.28762 13.9529 4.25064 14.2422 4.21961 14.5323C3.27324 14.5431 2.48904 14.8261 1.66758 15.2695C1.30896 15.4755 1.04442 15.6709 0.717522 15.9171C0.627178 15.3418 0.70416 14.6165 0.831195 14.0526C1.32032 13.6741 2.20141 13.4408 2.80807 13.3892Z" fill="#D2E3E4"/>
<path d="M4.15318 15.7465C4.1698 15.7623 4.35812 16.5292 4.39005 16.6271C4.23876 16.7938 3.96739 17.167 3.82604 17.3564C3.31667 18.0389 2.91436 18.4984 2.22109 18.9966C2.06765 18.8643 1.97541 18.7643 1.83743 18.6147C1.60567 18.328 1.41967 18.0729 1.25854 17.7417C2.2228 16.7983 2.89916 16.2715 4.15318 15.7465Z" fill="#D2E3E4"/>
<path d="M6.30527 2.91359C7.16469 2.83085 8.24425 3.49453 8.88195 4.01888C8.66002 4.16569 8.51576 4.27216 8.312 4.44169C7.55148 3.77499 6.26963 2.94034 6.57972 4.74182C6.65521 5.18028 6.71915 5.60287 6.97472 5.98126C6.8804 6.19104 6.78406 6.3999 6.68572 6.60784C6.42642 7.22118 6.24957 7.83305 6.01157 8.44532C5.8727 8.4763 5.70768 8.49605 5.56521 8.51704C5.6646 8.27802 5.96864 7.92382 5.89371 7.6728C5.85197 7.53296 5.61447 7.52951 5.48901 7.51454C5.7803 7.12702 6.10065 6.6909 6.40661 6.31994C6.14765 5.54003 5.66891 3.57615 6.30527 2.91359Z" fill="#D2E3E4"/>
<path d="M16.6964 2.62486C16.7422 2.62223 16.8716 2.61265 16.91 2.62428C17.2277 2.73156 17.2769 3.18039 17.3153 3.46289C17.4381 4.36479 17.3016 5.18502 17.0902 6.0569C17.2808 6.36957 17.8121 6.98762 18.063 7.26315C17.7648 7.28641 17.5162 7.34427 17.6961 7.72829C17.7869 7.92187 17.9571 8.13838 18.0812 8.31741C17.8995 8.28451 17.7919 8.25834 17.6146 8.20629C17.4197 7.80888 17.2106 7.18586 17.0207 6.74723C16.869 6.40021 16.7038 6.05924 16.5255 5.72511C16.6862 5.36331 16.783 4.9764 16.8114 4.58154C16.8303 4.34409 16.8661 3.77774 16.7446 3.58359C16.3769 2.99578 15.3985 3.98884 15.137 4.23859C14.9427 4.09509 14.7412 3.96262 14.5405 3.82816C15.0163 3.32163 16.0079 2.78322 16.6964 2.62486Z" fill="#D2E3E4"/>
<path d="M5.28743 17.722C5.46904 17.8069 5.66369 17.9129 5.84315 18.0058C5.97394 18.9292 6.20687 19.47 6.80919 20.1738C6.41638 20.2303 6.09845 20.2674 5.70241 20.2719C5.15261 20.2753 4.70328 20.1935 4.18188 20.0349C4.4439 19.2764 4.91293 18.4461 5.28743 17.722Z" fill="#D2E3E4"/>
<path d="M15.8411 16.9354C16.3682 17.1234 16.6938 17.7891 16.9137 18.2496C16.4821 18.9858 16.263 19.6415 16.4179 20.4844C16.2709 20.4592 16.0507 20.4479 15.8974 20.4358C15.5037 20.4087 15.1091 20.3948 14.7144 20.3937C15.6964 19.389 15.8419 18.2857 15.8411 16.9354Z" fill="#D2E3E4"/>
<path d="M14.2968 17.7257C14.4196 17.726 14.4554 17.7183 14.5567 17.7804C14.5866 17.8275 14.6245 17.868 14.6087 17.9272C14.4949 18.3535 14.3042 18.799 14.1632 19.2178C14.0185 19.6199 13.9115 20.0344 13.7555 20.4324C13.6432 20.7198 13.5606 20.8697 13.2242 20.8306C13.0073 20.7282 12.8879 20.5568 12.8744 20.3193C12.8284 19.5039 13.4591 17.934 14.2968 17.7257Z" fill="#D2E3E4"/>
<path d="M17.9598 18.6199C18.3859 18.662 18.4608 18.9053 18.2954 19.2872C18.1249 19.6801 17.9251 20.2851 17.5177 20.4715C16.9256 20.4458 17.0474 19.8443 17.1792 19.45C17.3178 19.0358 17.4919 18.687 17.9598 18.6199Z" fill="#D2E3E4"/>
<path d="M14.9832 11.5652C15.5171 11.7443 15.6657 11.829 16.249 11.9381C16.4224 12.3371 16.5554 12.2509 16.7346 12.5118C16.6244 12.531 16.1078 12.4484 15.9445 12.4342C15.7004 12.4134 15.5063 12.4039 15.2577 12.3989C15.1815 12.1162 15.0802 11.8416 14.9832 11.5652Z" fill="#D2E3E4"/>
<path d="M18.1249 17.731C18.1788 17.731 18.1886 17.7375 18.2422 17.7496C18.3869 17.9266 18.2062 18.1618 18.0681 18.2862C17.7012 18.1896 17.9779 17.8843 18.1249 17.731Z" fill="#D2E3E4"/>
<path d="M18.7039 17.7304L18.7957 17.7491C18.9588 17.9143 18.7828 18.147 18.6616 18.2851C18.5592 18.2612 18.5582 18.2538 18.5229 18.1667C18.5337 17.9974 18.6187 17.8761 18.7039 17.7304Z" fill="#D2E3E4"/>
</svg>
